<svg xmlns="http://www.w3.org/2000/svg" shape-rendering="geometricPrecision" text-rendering="geometricPrecision" image-rendering="optimizeQuality" fill-rule="evenodd" clip-rule="evenodd" viewBox="0 0 512 506.814"><circle fill="#FBD433" transform="matrix(2.61384 -.70038 .70038 2.61385 253.09 253.723)" r="93.504"/><path fill="#40270E" d="M151.669 284.159c-8.969-3.931-17.751 5.033-8.814 14.272 72.277 64.271 148.188 64.271 220.466 0 8.937-9.239.154-18.203-8.815-14.272-65.911 39.375-136.926 39.375-202.837 0zm246.143-81.595c-31.503-24.523-61.597-24.157-90.287-.27-12.934 10.769-18.689 4.758-12.848-9.873 5.812-14.547 13.106-26.926 22.338-36.467 38.987-40.296 74.62-4.297 91.679 35.755 5.448 12.79 2.614 21.359-10.882 10.855zm-197.519 0c-31.506-24.523-61.597-24.157-90.289-.27-12.935 10.769-18.687 4.758-12.846-9.873 5.809-14.547 13.104-26.926 22.335-36.467 38.989-40.296 74.62-4.297 91.679 35.755 5.448 12.79 2.617 21.359-10.879 10.855z"/><path fill="#F44336" d="M95.601 335.447c-77.318-43.276-142.102 108.327 64.907 112.064 97.787-188.474-73.382-197.914-64.907-112.064zM343.694 25.753c-40.222-67.574-157.293 20.201.157 114.934 158.797-101.468 31.427-184.68-.157-114.934zm95.837 289.033c36.576-61.448 143.03 18.37-.142 104.514-144.4-92.27-28.577-167.936.142-104.514z"/><path fill="#C62828" d="M121.008 287.533c-15.49 6.997-26.993 22.777-25.562 45.63.266 1.338.583 2.703.951 4.103 2.784 12.154 8.598 14.96 12.659 12.981 5.679-2.77 3.503-7.985 2.711-12.659-3.968-23.387.075-39.959 10.952-50.556-.572.157-1.144.324-1.711.501zm281.432 4.017c13.651-1.361 28.058 5.025 36.279 21.578a56.76 56.76 0 01.992 3.251c2.958 9.617.027 13.924-3.61 14.179-5.087.356-5.671-4.166-7.004-7.753-6.664-17.946-16.178-27.897-28.054-30.914a36.92 36.92 0 011.397-.341zm62.574 2.786c41.045-10.963 88.873 51.928-18.24 120.373 79.152-62.879 53.556-113.201 18.24-120.373zM315.672 3.262c-45.14-12.052-97.736 57.109 20.057 132.377C248.685 66.49 276.835 11.151 315.672 3.262zM384.485.198c-15.014-1.492-30.855 5.53-39.898 23.733a62.817 62.817 0 00-1.09 3.572c-3.253 10.577-.029 15.313 3.97 15.596 5.596.39 6.237-4.582 7.702-8.527C362.498 14.837 372.96 3.893 386.022.574a55.473 55.473 0 00-1.537-.376zM55.588 329.289C4.75 342.955-7.61 440.074 149.737 447.16 25.843 428.724 22.133 358.867 55.588 329.289z"/><path fill="#FF847A" d="M136.841 298.538c-9.924 3.621-14.377 15.344-3.019 23.309 3.072 1.263 6.183 2.787 9.317 4.474 4.286 2.308 9.223 6.6 13.972 8.916 3.323 1.621 6.555 2.274 9.407.603 15.875-9.3-8.712-44.95-29.677-37.302zM391.769 15.685c-9.234-1.621-17.859 5.413-12.664 16.576 1.801 2.333 3.516 4.885 5.176 7.573 2.27 3.676 4.16 9.165 6.783 13.053 1.835 2.72 4.028 4.656 6.962 4.638 16.329-.104 13.251-38.415-6.257-41.84zm4.047 289.946c8.396-1.474 16.239 4.922 11.516 15.073-1.639 2.122-3.198 4.442-4.707 6.886-2.065 3.343-3.783 8.335-6.168 11.87-1.669 2.473-3.664 4.234-6.331 4.217-14.848-.094-12.05-34.932 5.69-38.046z"/></svg>